<svg viewBox="0 0 100 100" xmlns="http://www.w3.org/2000/svg" role="img" aria-label="MASESORA">
  <defs>
    <linearGradient id="gi_L" x1="0%" y1="100%" x2="100%" y2="0%">
      <stop offset="0%"   stop-color="#9A7E3A"/>
      <stop offset="50%"  stop-color="#C8A84B"/>
      <stop offset="100%" stop-color="#B89D52"/>
    </linearGradient>
  </defs>
  <rect width="100" height="100" fill="#FFFFFF" rx="20" stroke="#0F1A35" stroke-opacity="0.08"/>
  <path d="M 10,78 C 10,78 13,22 24,22 C 35,22 38,58 50,58 C 62,58 65,22 76,22 C 87,22 89,78 89,78"
    fill="none" stroke="url(#gi_L)" stroke-width="5.5"
    stroke-linecap="round" stroke-linejoin="round"/>
  <path d="M 13,82 C 13,82 16,26 26,26 C 36,26 39,62 50,62 C 61,62 64,26 74,26 C 84,26 86,82 86,82"
    fill="none" stroke="url(#gi_L)" stroke-width="1.5"
    stroke-linecap="round" opacity="0.22"/>
  <circle cx="10" cy="78" r="3.5" fill="url(#gi_L)"/>
  <line x1="89" y1="78" x2="92" y2="14"
    stroke="url(#gi_L)" stroke-width="2.8"
    stroke-linecap="round" opacity="0.75"/>
  <circle cx="92" cy="11" r="3" fill="url(#gi_L)" opacity="0.75"/>
</svg>
