<svg viewBox="0 0 100 100" xmlns="http://www.w3.org/2000/svg" role="img" aria-label="MASFRAME">
  <defs>
    <linearGradient id="gld_mfi" x1="0%" y1="0%" x2="100%" y2="100%">
      <stop offset="0%" stop-color="#C8A84B"/>
      <stop offset="50%" stop-color="#E8C96A"/>
      <stop offset="100%" stop-color="#B89D52"/>
    </linearGradient>
    <pattern id="geo_mfi" x="0" y="0" width="14" height="14" patternUnits="userSpaceOnUse">
      <line x1="0" y1="7" x2="14" y2="7" stroke="#B89D52" stroke-width="0.25" opacity="0.15"/>
      <line x1="7" y1="0" x2="7" y2="14" stroke="#B89D52" stroke-width="0.25" opacity="0.15"/>
    </pattern>
  </defs>
  <rect width="100" height="100" fill="#0F1A35" rx="20"/>
  <rect width="100" height="100" fill="url(#geo_mfi)" rx="20"/>
  <rect x="0" y="0" width="100" height="2" fill="url(#gld_mfi)" rx="1"/>
  <polygon points="50,20 76,35 76,65 50,80 24,65 24,35" fill="none" stroke="url(#gld_mfi)" stroke-width="1.8" opacity="0.9"/>
  <polygon points="50,28 69,39 69,61 50,72 31,61 31,39" fill="none" stroke="url(#gld_mfi)" stroke-width="0.7" opacity="0.28"/>
  <text x="50" y="58" font-family="Georgia,serif" font-size="28" font-weight="700" fill="#F9F7F2" text-anchor="middle">M</text>
  <line x1="78" y1="34" x2="92" y2="22" stroke="url(#gld_mfi)" stroke-width="1.2" opacity="0.45"/>
  <line x1="82" y1="30" x2="93" y2="20" stroke="url(#gld_mfi)" stroke-width="0.5" opacity="0.2"/>
</svg>
